<?xml version="1.0" encoding="UTF-8" standalone="no"?>
<!-- Created with Inkscape (http://www.inkscape.org/) -->

<svg
   width="800"
   height="800"
   viewBox="0 0 211.66666 211.66667"
   version="1.1"
   id="svg1171"
   xmlns="http://www.w3.org/2000/svg"
   xmlns:svg="http://www.w3.org/2000/svg">
  <defs
     id="defs1168" />
  <g
     id="layer1">
    <g
       id="g527"
       transform="matrix(0.22846725,0,0,0.22846725,5.0864245,4.3165973)">
      <path
         style="fill:#e3ab61;stroke-width:2.53968"
         d="m 490.15872,827.4887 31.74603,-31.29823 28.98131,-8.8221 c 54.49316,-16.58801 97.38438,-42.06504 140.12035,-83.23027 31.30657,-30.15591 55.34644,-62.49933 73.15543,-98.42382 12.51502,-25.24546 12.77905,-25.55195 44.30535,-51.42857 17.4434,-14.31746 32.53457,-26.03175 33.53595,-26.03175 1.91802,0 -0.18235,16.81138 -3.02614,24.22248 -1.064,2.77275 4.67736,0.0917 15.84041,-7.39703 18.90745,-12.68404 22.5652,-13.84155 24.85806,-7.86649 1.78552,4.65308 -1.49362,7.61039 -27.51264,24.81247 l -19.98489,13.2127 -9.15837,22.85714 c -38.10664,95.10512 -107.97643,170.92096 -199.9473,216.96317 -43.18933,21.62134 -99.39759,37.72991 -146.8818,42.09445 l -17.77778,1.63409 z m -219.68253,-3.85392 c -24.14358,-10.85955 -56.79437,-28.96632 -69.23418,-38.39433 l -5.74211,-4.3519 20.29665,-20.17763 20.29665,-20.17759 9.57244,5.69338 c 17.98441,10.69658 62.88232,32.59124 78.7788,38.41686 8.73016,3.19934 15.87301,6.56544 15.87301,7.48021 0,1.68403 -30.01803,31.30016 -39.36507,38.83806 -4.76633,3.84376 -6.64458,3.39221 -30.47619,-7.32706 z M 11.593234,597.60853 c -1.149991,-2.99683 0.877768,-6.26136 6.704469,-10.79365 4.594195,-3.57359 11.55401,-9.35457 15.466253,-12.84663 l 7.113168,-6.34921 -6.25393,-26.66667 C 23.980917,495.57386 24.00089,496.55448 33.571329,489.30755 53.055862,474.55342 83.942246,457.0853 84.940507,460.25521 c 0.560645,1.78026 1.769498,11.80828 2.686344,22.28447 0.916845,10.47619 3.876177,29.81574 6.576294,42.97678 2.700114,13.16105 4.246027,26.01895 3.435363,28.57313 -0.810667,2.55419 -5.385547,7.62748 -10.1664,11.27404 -4.780853,3.64652 -7.955586,7.82234 -7.054961,9.27959 0.901445,1.45856 0.424894,1.90009 -1.060183,0.98225 -1.483726,-0.91698 -8.481793,2.90483 -15.551263,8.49292 l -12.853577,10.16016 -3.277816,-6.25593 -3.277816,-6.25592 -12.674435,10.04203 c -14.024049,11.11134 -17.685731,12.1664 -20.128823,5.7998 z M 794.92062,380.0128 c 0,-6.16892 -18.21767,-59.71429 -27.22344,-80.01514 l -11.68995,-26.35154 16.28208,-14.93557 c 25.11723,-23.04002 22.52909,-23.56822 36.59317,7.46811 6.76782,14.93506 13.06755,28.05575 13.99939,29.15703 0.93186,1.10131 7.99461,-3.1844 15.69503,-9.52381 7.70042,-6.33938 15.88505,-11.52617 18.18812,-11.52617 8.8818,0 3.67553,9.68709 -12.07378,22.46522 l -16.26113,13.1934 5.44876,16.75903 5.44876,16.75904 -20.29874,18.67189 c -17.95749,16.51828 -24.10827,21.07965 -24.10827,17.87851 z M 57.127903,287.89803 c 2.124505,-5.08467 7.834069,-16.72376 12.687918,-25.86469 4.853849,-9.14092 8.551627,-16.89341 8.217283,-17.22775 -0.334342,-0.33434 -8.366504,5.69271 -17.84925,13.39347 -16.548617,13.43878 -24.628299,15.89554 -24.628299,7.48866 0,-2.02294 15.218352,-15.80537 33.818557,-30.62765 18.600208,-14.82228 37.949208,-32.34588 42.997768,-38.94134 10.37748,-13.55717 51.30749,-54.57891 66.67574,-66.82517 35.6887,-28.43871 87.10374,-56.144324 130.79365,-70.479722 36.01724,-11.817866 58.6498,-15.929879 95.23809,-17.303385 l 33.01587,-1.239398 -6.3492,5.264845 c -16.12554,13.371508 -66.42868,47.233582 -81.47597,54.84637 -9.19271,4.65082 -27.5286,12.95695 -40.74643,18.45805 -50.68498,21.09453 -81.51369,42.02172 -127.93633,86.84595 -23.46995,22.66183 -42.92895,38.53959 -67.30159,54.91535 -34.674676,23.29765 -56.168444,36.54123 -59.30483,36.54123 -0.943641,0 0.0226,-4.16017 2.147023,-9.24482 z M 610.25419,134.80567 c -11.25257,-5.44162 -21.13212,-10.98261 -21.95452,-12.3133 -0.82242,-1.3307 9.36211,-10.06284 22.63231,-19.40476 l 24.12759,-16.985315 9.95515,5.595106 9.95515,5.595106 32.9396,-22.33203 c 31.63891,-21.450192 40.97941,-25.02977 40.97941,-15.704615 0,2.787601 -24.69108,20.618819 -59.22794,42.772798 -1.8148,1.16411 -1.6655,2.91873 0.46695,5.48818 2.16061,2.60339 2.2943,4.29634 0.43019,5.44842 -1.48744,0.91928 -1.93777,2.9119 -1.00076,4.42803 0.98357,1.59147 0.52864,2.03038 -1.07637,1.03844 -1.52901,-0.94499 -6.56274,1.52725 -11.18605,5.49385 -4.62332,3.9666 -12.49549,10.26344 -17.49374,13.99298 l -9.08772,6.78097 z"
         id="path541" />
      <path
         style="fill:#b1443b;stroke-width:2.53968"
         d="m 270.89948,871.95765 c -3.35335,-3.35332 -1.42507,-5.629 16.08464,-18.98245 9.77778,-7.45683 17.77778,-14.73772 17.77778,-16.17976 0,-1.44203 9.42857,-11.99692 20.95238,-23.45533 l 20.95238,-20.83345 24.12699,4.98313 c 13.26984,2.74073 28.41269,4.99818 33.65079,5.01651 5.23809,0.0178 9.52381,0.91309 9.52381,1.98829 0,1.0752 -10.57143,12.44397 -23.49207,25.26388 l -23.49206,23.30895 -20.31746,-4.85968 c -11.1746,-2.67282 -22.29234,-4.8987 -24.70606,-4.94642 -2.41374,-0.0477 -13.27088,6.76422 -24.12698,15.1376 -19.30067,14.88673 -23.49481,16.99807 -26.93414,13.55873 z M 33.214298,687.2232 c -2.401247,-2.89333 1.031627,-7.06085 18.101727,-21.97564 11.585709,-10.12284 21.461462,-18.72221 21.946117,-19.10969 0.484656,-0.38748 -3.801059,-10.05935 -9.523809,-21.49305 -5.72275,-11.4337 -10.405,-22.18197 -10.405,-23.88506 0,-3.25767 43.385086,-39.48993 47.285877,-39.48993 1.24509,0 4.96467,7.14286 8.26575,15.87302 3.30107,8.73016 11.00954,25.4306 17.12992,37.1121 6.12039,11.68147 11.12797,22.19563 11.12797,23.36478 0,1.16916 -9.80781,10.38483 -21.79515,20.47926 -23.326696,19.64325 -22.112659,19.48637 -30.519419,3.94352 -4.420501,-8.17288 -1.982319,-9.33608 -29.655398,14.14796 -9.464437,8.03174 -17.610214,14.60317 -18.101727,14.60317 -0.491512,0 -2.227098,-1.6067 -3.856858,-3.57044 z M 801.43694,444.9701 c -0.85821,-13.55896 -2.21463,-31.97887 -3.01427,-40.93313 l -1.45392,-16.28048 19.88927,-18.64015 c 10.9391,-10.25209 20.64173,-18.64015 21.56137,-18.64015 2.79479,0 4.1869,5.80756 8.60264,35.88876 2.33112,15.88023 4.61595,29.26044 5.07733,29.73384 0.46141,0.47337 5.19312,-2.09806 10.51487,-5.71429 11.44458,-7.77678 16.11591,-8.31454 16.11591,-1.85518 0,2.85127 -5.2785,8.30293 -13.33333,13.77064 -7.33333,4.97798 -24.37323,17.66204 -37.86641,28.18684 l -24.53308,19.13598 z M 24.177652,418.67349 c 2.109781,-23.45795 12.262711,-75.1713 18.375417,-93.59413 l 4.634676,-13.96825 39.263271,-26.10268 c 21.594794,-14.35647 44.915664,-29.62649 51.824154,-33.93336 11.60628,-7.23558 12.23617,-7.37494 8.28822,-1.83384 -19.07139,26.7675 -40.08832,73.8249 -50.220976,112.44595 -3.999805,15.24544 -8.170276,28.5055 -9.267713,29.46682 -3.372297,2.95401 -57.654689,42.19149 -61.222437,44.254 -2.711419,1.56749 -3.032287,-1.63896 -1.674612,-16.73451 z M 687.04489,188.03484 c -0.82987,-1.34274 -12.85026,-10.98472 -26.71197,-21.42661 l -25.20315,-18.98526 15.76845,-13.34842 c 8.67264,-7.34164 18.09951,-15.38735 20.94858,-17.87937 5.05721,-4.42342 5.68998,-4.119 26.66666,12.82904 34.60396,27.95816 33.72653,24.6143 11.64473,44.37741 -19.8655,17.77953 -20.71668,18.31104 -23.1133,14.43321 z M 367.41478,98.908484 c 1.15994,-1.139327 20.39474,-15.287355 42.74394,-31.440063 44.58101,-32.220569 42.24338,-31.39439 75.67271,-26.7448 l 18.89737,2.628386 26.8859,-16.817455 c 14.78725,-9.2496 28.0804,-16.079211 29.54036,-15.176913 6.13352,3.790715 1.50548,9.269045 -17.59715,20.830236 -11.13839,6.741113 -20.28125,13.583838 -20.31746,15.206057 -0.0363,1.622217 -12.16008,12.599098 -26.94189,24.393069 l -26.87604,21.443583 -41.06047,1.60591 c -22.58326,0.883251 -46.00955,2.626865 -52.05839,3.8747 -6.04886,1.247832 -10.04886,1.336616 -8.88888,0.197282 z"
         id="path535" />
      <path
         style="fill:#7e255a;stroke-width:2.53968"
         d="m 413.17475,855.75105 c -19.29359,-1.03858 -35.54288,-2.352 -36.10959,-2.91868 -0.56668,-0.5667 9.50469,-11.40917 22.38083,-24.0944 l 23.41115,-23.06407 41.81511,-1.52061 41.81508,-1.52064 -27.80353,27.89003 c -15.29193,15.33951 -28.39446,27.71602 -29.1167,27.50337 -0.72223,-0.21257 -17.09879,-1.2364 -36.39235,-2.275 z M 108.4127,823.75661 c -4.2902,-4.29021 0.17782,-9.50806 30,-35.03476 17.46031,-14.9454 31.74603,-27.38827 31.74603,-27.65082 0,-0.26258 -13.42857,-14.26522 -29.84127,-31.11696 -16.4127,-16.85175 -32.12699,-34.96561 -34.92064,-40.253 l -5.07936,-9.61346 18.87209,-17.50413 c 10.37965,-9.62727 19.60078,-17.50412 20.49141,-17.50412 0.89063,0 8.92136,9.27042 17.84607,20.60091 22.5287,27.10312 45.42633,48.21973 70.92772,72.34052 l -18.89565,18.76955 c -18.39544,18.27266 -19.02811,18.64965 -23.89919,14.2414 -4.87381,-4.41075 -5.8654,-3.78111 -38.24295,24.28353 -34.96242,30.30522 -36.22195,31.22364 -39.00426,28.44134 z M 785.71928,561.11883 c 0.99156,-3.40902 5.27807,-22.7389 9.52553,-42.95533 4.24747,-20.21643 8.76127,-38.69775 10.03063,-41.06959 1.85641,-3.46872 43.85879,-37.72884 46.25496,-37.72884 0.92249,0 -2.60729,46.85428 -4.64704,61.68493 -1.49323,10.85712 -3.5232,14.03985 -17.30341,27.1297 -8.58644,8.15627 -22.37338,20.29882 -30.63764,26.98344 -13.18382,10.66388 -14.8049,11.39401 -13.22303,5.95569 z M 25.396825,465.25279 v -22.39621 l 28.571428,-20.84399 28.571428,-20.84401 1.832785,9.57442 c 2.987751,15.60798 -0.150502,32.17148 -7.743644,40.87051 -3.733153,4.27685 -16.787553,14.13445 -29.009775,21.90577 L 25.396825,487.64899 Z M 740.60535,247.88993 c -6.00699,-8.41806 -17.7171,-22.72979 -26.79759,-32.79648 -0.55263,-0.61265 -1.09552,-1.20957 -1.62679,-1.78849 l -16.83787,-18.34792 16.06458,-16.20868 c 8.83556,-8.91477 17.38065,-16.20868 18.98913,-16.20868 4.2015,0 20.70324,18.54887 41.78677,46.97064 l 18.27647,24.63771 -14.83307,14.98947 c -8.15819,8.24421 -16.76853,14.98948 -19.13409,14.98948 -2.38489,0 -9.46287,-7.23366 -15.88754,-16.23705 z M 562.53967,112.69085 C 552.05104,108.79157 509.33355,98.277266 491.42856,95.187862 L 481.26983,93.435031 495.20207,80.90003 c 7.66271,-6.894253 19.98304,-16.702367 27.37849,-21.79581 l 13.4463,-9.260807 18.33577,5.818595 c 26.6301,8.450682 70.08262,25.580513 71.75561,28.287464 1.77988,2.879944 -43.507,32.943778 -49.25333,32.696968 -2.29159,-0.0984 -8.73793,-1.87843 -14.32524,-3.95559 z"
         id="path531" />
      <path
         style="fill:#ffffff;stroke-width:2.53968"
         d="m 275.99748,706.89693 c -3.39324,-3.39324 -1.61023,-10.89955 3.20064,-13.47426 2.70181,-1.44597 11.81945,-2.62903 20.26141,-2.62903 h 15.34902 l 0.69095,-47.61904 0.69097,-47.61905 10.15873,-2.42611 c 5.5873,-1.33437 10.99838,-3.62009 12.02461,-5.07936 1.02624,-1.45931 1.88338,-10.88445 1.90476,-20.94477 l 0.0389,-18.29153 -15.87301,-0.75608 -15.87302,-0.75612 -1.60792,-16.50794 c -0.88434,-9.07936 -1.74149,-48.36507 -1.90476,-87.30158 l -0.29684,-70.79365 -8.25397,1.61041 c -19.44884,3.79459 -42.31505,29.49311 -45.98149,51.6769 -0.86991,5.26342 -1.59423,26.91276 -1.6096,48.10972 l -0.028,38.53986 10.68088,5.90458 c 14.55442,8.04592 24.57882,22.97321 26.53831,39.51807 1.29372,10.92338 0.83175,13.54702 -2.61841,14.87098 -6.12868,2.3518 -10.89966,-2.82181 -12.64028,-13.70702 -1.83913,-11.50141 -13.95063,-24.84134 -24.69661,-27.20157 -15.734,-3.45575 -30.29365,9.52127 -37.09078,33.05902 -3.05419,10.57635 -11.89708,10.60734 -13.09706,0.046 -2.02583,-17.83015 9.89655,-38.03561 27.84659,-47.19302 l 9.83926,-5.01968 v -42.62984 c 0,-55.55337 3.63475,-67.96274 26.66557,-91.03878 12.61072,-12.63546 18.43939,-16.48869 30.04572,-19.86273 l 14.39982,-4.18616 V 341.7181 c 0,-8.0875 1.34517,-14.59348 3.36371,-16.26873 2.10372,-1.74593 20.89244,-3.05158 50.15873,-3.48556 l 46.79502,-0.69394 V 304.7619 288.25397 l -21.9905,-0.73042 c -13.8541,-0.46016 -22.97971,-1.92231 -24.664,-3.95177 -1.47043,-1.77176 -3.00325,-14.58593 -3.40633,-28.47594 l -0.73282,-25.25457 -22.1855,-0.73326 c -18.12277,-0.59899 -22.62486,-1.55421 -24.58468,-5.21621 -4.53715,-8.47771 0.69716,-11.10332 24.88439,-12.48241 l 23.15563,-1.32028 0.0348,-21.86995 c 0.0203,-12.02848 0.72381,-24.44138 1.56607,-27.58424 l 1.53136,-5.71429 h 77.92601 c 57.22289,0 78.7357,0.80968 80.97364,3.04762 1.95063,1.95064 3.04762,11.89761 3.04762,27.63449 v 24.58688 l 24.27175,1.81972 24.27177,1.81973 -0.77971,6.73626 c -0.77321,6.68029 -0.97295,6.7423 -24.04323,7.46345 l -23.26354,0.7272 -0.86344,26.67086 c -0.65554,20.24912 -1.7807,27.24978 -4.67297,29.07518 -2.09523,1.32238 -13.29031,2.42184 -24.87794,2.44322 l -21.06842,0.0389 0.75096,17.14286 0.75096,17.14285 46.98413,0.6672 c 53.52833,0.7601 53.33333,0.68203 53.33333,21.35713 0,11.21316 0.54626,12.28214 6.98413,13.66702 23.61737,5.08049 45.01757,22.75442 56.048,46.28874 6.4309,13.72086 6.84769,16.92607 7.50339,57.70245 0.38184,23.74603 1.19421,45.46032 1.80523,48.25397 0.61105,2.79365 4.5104,6.57099 8.66522,8.39408 10.31563,4.52643 22.50986,17.47741 25.37549,26.95025 4.82392,15.94654 5.19665,21.05737 1.86763,25.61005 -4.83578,6.61334 -11.15921,3.14294 -13.09732,-7.18801 -5.39497,-28.75769 -32.91766,-40.58875 -50.85862,-21.86242 -3.80797,3.97468 -8.31535,12.70798 -10.0164,19.40739 -2.24165,8.82854 -4.33714,12.18072 -7.61435,12.18072 -18.91893,0 -3.57806,-43.65404 18.81242,-53.5327 l 10.39807,-4.58765 -0.0559,-44.59061 c -0.0493,-39.29869 -0.66712,-45.93833 -5.20713,-55.94694 -7.9472,-17.51995 -16.75728,-27.49905 -30.36572,-34.39497 -21.7043,-10.99845 -20.24429,-16.01245 -20.24429,69.52383 0,41.70979 -0.71365,81.04267 -1.5859,87.40637 l -1.58588,11.57034 -14.92206,1.73189 -14.92203,1.73188 v 21.33796 21.33793 h 10.22159 c 14.01351,0 15.17524,4.17084 15.17524,54.4819 v 41.45285 l 17.73117,1.00191 c 19.47393,1.10037 25.79713,4.57501 21.30032,11.70466 -2.55645,4.05325 -14.59746,4.42255 -163.94542,5.02811 -88.6525,0.35947 -161.95665,-0.11682 -162.89811,-1.05821 z m 132.8914,-56.80437 v -40.70105 l -38.73016,0.70105 -38.73015,0.70108 -0.69941,40 -0.69943,40 h 39.42959 39.42956 z m 43.17461,-4.50527 c 0,-31.77424 0.90552,-46.11187 3.04761,-48.25396 1.67619,-1.67619 7.39048,-3.04762 12.69842,-3.04762 h 9.65079 v -21.5873 -21.58731 h -14.84795 c -8.16635,0 -25.12625,-0.72957 -37.68866,-1.62128 -27.12411,-1.92533 -26.87962,-2.18179 -24.52096,25.72097 l 1.59073,18.81823 10.43182,0.76325 c 10.26311,0.75094 10.4596,0.94814 12.14837,12.19185 0.94407,6.28571 1.80122,27.71429 1.90476,47.61905 l 0.18824,36.19047 h 12.69841 12.69842 z m 93.96825,29.96826 v -15.2381 l -14.60318,-0.30047 c -23.63004,-0.48624 -29.84127,-2.54334 -29.84127,-9.8832 0,-6.20147 0.43147,-6.33851 22.22223,-7.05805 l 22.22222,-0.73382 V 625.93287 609.5238 H 510.6839 c -19.44132,0 -37.1556,0.69369 -39.36508,1.54156 -3.42245,1.31333 -4.01724,7.32973 -4.01724,40.63492 v 39.09336 h 39.36508 39.36508 z M 383.49206,572.69841 V 551.1111 H 369.5238 355.55555 v 21.58731 21.5873 h 13.96825 13.96826 z m 138.41269,-1.26984 V 549.84126 H 507.9365 493.96825 l -0.7357,22.35198 -0.73569,22.35197 14.70394,-0.76467 14.70395,-0.76467 z m 28.57143,-39.69598 5.71429,-1.53135 V 435.25935 340.31746 H 439.36507 322.53968 v 95.06146 95.06146 l 5.71428,1.10062 c 8.96247,1.72624 215.83017,1.90461 222.22222,0.19149 z m -181.5873,-63.57331 c -2.32673,-0.93884 -3.1746,-10.74202 -3.1746,-36.70461 0,-30.52914 0.57709,-35.64507 4.17679,-37.02638 8.25958,-3.16953 11.06131,6.1263 11.06131,36.70026 0,33.73605 -2.35015,40.95015 -12.0635,37.03073 z m 42.62903,-3.23042 c -1.44597,-2.70182 -2.62903,-18.56188 -2.62903,-35.24457 0,-31.61953 2.05494,-38.00925 11.10667,-34.53575 6.10926,2.34433 6.21613,70.80963 0.11428,73.15116 -5.59281,2.14616 -5.65153,2.12313 -8.59182,-3.37084 z m 43.59319,-0.6749 c -3.28355,-3.28355 -3.73546,-31.34306 -0.89168,-55.36508 1.41466,-11.94984 2.47932,-14.08553 7.36787,-14.77981 5.70159,-0.80975 5.71429,-0.72934 5.71429,36.19048 0,33.93846 -0.37849,37.00203 -4.57143,37.00203 -2.51428,0 -5.94286,-1.37143 -7.61905,-3.04762 z m 43.84554,-0.0833 c -0.73595,-1.91787 -1.01656,-18.28373 -0.62357,-36.36861 0.68795,-31.65737 0.92191,-32.91106 6.28417,-33.67416 7.36596,-1.04822 8.88792,7.4318 7.89104,43.96722 -0.73092,26.78811 -0.99761,27.96993 -6.48789,28.74956 -3.15038,0.44734 -6.3275,-0.75535 -7.06375,-2.67401 z m -42.33267,-160.04368 0.75096,-17.14286 h -17.89382 -17.89382 v 16.08465 c 0,8.84658 0.81024,16.89491 1.80054,17.88521 0.9903,0.99027 8.70458,1.46646 17.14286,1.05818 l 15.34232,-0.74232 z m 48.1935,-83.68402 0.69051,-47.49353 -8.30956,-1.50128 c -4.57024,-0.8257 -34.02382,-1.1679 -65.45239,-0.76043 l -57.14286,0.74085 -0.68991,48.93187 -0.6899,48.93187 65.45181,-0.67789 65.45181,-0.67792 z m -107.15391,5.81338 c -6.08856,-6.72778 -4.20772,-17.68117 4.09582,-23.85283 6.46466,-4.8049 7.19183,-4.85162 13.29301,-0.85396 8.52586,5.58636 10.78367,15.14633 5.48647,23.23085 -5.08327,7.75808 -16.5221,8.49613 -22.8753,1.47594 z m 59.64539,0.0858 c -4.60285,-8.60053 -3.14053,-17.37751 3.80561,-22.84134 8.13135,-6.39612 16.1504,-4.0733 21.16345,6.13025 3.04747,6.20275 3.03622,8.13734 -0.0797,13.71578 -4.85651,8.69441 -20.81161,10.61454 -24.8893,2.99531 z"
         id="path529" />
    </g>
  </g>
</svg>
